<?xml version="1.0" encoding="UTF-8"?>
<svg version="1.1" xmlns="http://www.w3.org/2000/svg" width="512" height="512">
<path d="M0 0 C1.34120285 -0.00302481 2.68240397 -0.00691594 4.02360207 -0.01159257 C7.68950331 -0.02183876 11.35530639 -0.01969942 15.02121556 -0.01541197 C18.98244148 -0.01293862 22.94364413 -0.02196642 26.90486145 -0.02944946 C34.65743416 -0.04218115 42.4099722 -0.0439921 50.1625536 -0.0416492 C56.46517497 -0.03986432 62.76778584 -0.04161932 69.07040596 -0.04587364 C69.96829172 -0.04646883 70.86617749 -0.04706402 71.79127191 -0.04767724 C73.6154658 -0.04888903 75.43965968 -0.05010316 77.26385356 -0.05131962 C94.36033984 -0.06218907 111.45680638 -0.06003537 128.55329377 -0.05393478 C144.18528506 -0.04876503 159.81721403 -0.06002366 175.44919299 -0.07903299 C191.51152837 -0.09841553 207.57383427 -0.10666674 223.63618141 -0.10290974 C232.64942702 -0.10099848 241.66261958 -0.10347813 250.67585564 -0.11762428 C258.3481089 -0.12954426 266.02027647 -0.13093597 273.69253092 -0.11883412 C277.60467781 -0.11295003 281.51666799 -0.11183294 285.4288044 -0.12383652 C289.01457158 -0.13471062 292.6000515 -0.13157407 296.18580533 -0.11757483 C298.08775177 -0.1136864 299.98971105 -0.12446247 301.89162725 -0.13587171 C313.94847432 -0.06008371 323.38050534 2.6579675 332.40065002 10.85444641 C339.24208343 18.12454105 341.29800521 26.41254586 341.18531799 36.21748352 C340.77091338 45.0313907 337.86412034 52.31273367 331.77174377 58.76069641 C321.95740127 67.61933515 312.07582815 68.55987735 299.30657959 68.52812195 C297.95457768 68.53186262 296.60257792 68.5364658 295.25058156 68.54185259 C291.55015188 68.55404636 287.84981286 68.55382643 284.14936769 68.55146384 C280.15265481 68.55105476 276.15597065 68.56210348 272.15927124 68.57157898 C264.3347079 68.58816969 256.5101747 68.59368764 248.68559524 68.59480374 C242.32384292 68.59575506 235.96210052 68.59986955 229.60035133 68.60620499 C211.55262446 68.62381157 193.50492135 68.63304468 175.45718583 68.63154404 C174.48486446 68.63146413 173.5125431 68.63138421 172.51075745 68.63130188 C171.05048912 68.63117924 171.05048912 68.63117924 169.56072042 68.63105412 C153.78382813 68.63024122 138.00703131 68.64938129 122.23016664 68.67757861 C106.01982556 68.70632146 89.80953103 68.72011816 73.59916383 68.71839106 C64.50257319 68.71772768 55.40608265 68.72319737 46.309515 68.74474716 C38.56478617 68.76297731 30.82020285 68.76729119 23.07546183 68.75372832 C19.12669702 68.7472081 15.17821121 68.74704699 11.22947311 68.76443481 C7.60900236 68.78021274 3.98903073 68.77725448 0.3685718 68.75986655 C-1.54959282 68.75536639 -3.4677732 68.77041684 -5.38587695 68.78634584 C-16.330173 68.69953318 -26.3800252 66.14650166 -34.35325623 58.26069641 C-36.67735008 55.41368143 -38.57727664 52.47516413 -40.35325623 49.26069641 C-40.69485779 48.6458136 -41.03645935 48.03093079 -41.38841248 47.39741516 C-44.71405968 40.17380006 -44.51172156 31.4737477 -42.43919373 23.93647766 C-38.42003143 13.60334105 -32.60628929 6.79110637 -22.35325623 2.26069641 C-14.8304603 0.18117412 -7.7778584 -0.02386889 0 0 Z " fill="#000000" transform="translate(171.35325622558594,87.73930358886719)"/>
<path d="M0 0 C1.35185112 -0.00302282 2.70370054 -0.00691296 4.05554694 -0.01159257 C7.76017118 -0.02186466 11.46469856 -0.01969276 15.16933072 -0.01541197 C19.16876524 -0.01294329 23.16817654 -0.02196073 27.16760254 -0.02944946 C34.99932399 -0.04219492 42.83101115 -0.04399031 50.66274122 -0.0416492 C57.02976967 -0.03986556 63.39678772 -0.04161666 69.76381493 -0.04587364 C70.67029775 -0.04646883 71.57678058 -0.04706402 72.51073259 -0.04767724 C74.35232054 -0.04888901 76.19390849 -0.05010314 78.03549644 -0.05131962 C95.30413219 -0.06219475 112.57274841 -0.0600329 129.84138527 -0.05393478 C145.63193336 -0.04876671 161.42241974 -0.0600182 177.21295563 -0.07903299 C193.43342937 -0.09841549 209.65387392 -0.1066666 225.87435931 -0.10290974 C234.97817845 -0.10099819 244.08194509 -0.10348075 253.18575478 -0.11762428 C260.93674151 -0.12954435 268.68764342 -0.13093602 276.43863133 -0.11883412 C280.39126908 -0.11294957 284.34375172 -0.11183414 288.29637909 -0.12383652 C291.91923352 -0.1347094 295.54180359 -0.13157548 299.1646448 -0.11757483 C301.08656932 -0.11368566 303.00850655 -0.12446361 304.93040115 -0.13587171 C317.1231658 -0.06000253 325.56338231 2.4512719 334.46086121 10.85444641 C341.41353386 18.22427942 343.39205588 26.4085871 343.24162292 36.36030579 C342.8167205 45.74820228 339.61098562 52.4207899 333.19132996 59.21382141 C325.88908854 65.39536342 317.57792881 68.38252703 308.10761642 68.38933086 C306.97110791 68.39255531 305.83459939 68.39577976 304.66365123 68.39910191 C303.41979632 68.39755331 302.17594141 68.39600471 300.89439392 68.39440918 C299.55593211 68.39627776 298.21747084 68.39857865 296.87901044 68.4012745 C293.20216498 68.4073932 289.52534225 68.40725882 285.84849286 68.40608013 C281.88245114 68.40587614 277.91641673 68.41139476 273.95037842 68.4161377 C266.18022131 68.42444543 258.41007179 68.4271926 250.63991061 68.42775007 C244.32336246 68.42822522 238.00681682 68.4302799 231.69026947 68.4334507 C213.78070318 68.44225797 195.87114288 68.44687002 177.96157441 68.44612022 C176.99599237 68.44608027 176.03041033 68.44604031 175.03556824 68.44599915 C173.58542599 68.44593782 173.58542599 68.44593782 172.10598794 68.44587526 C156.4407487 68.44546888 140.77553351 68.45503639 125.11030123 68.46913751 C109.02437124 68.48350302 92.93845298 68.49040758 76.85251641 68.48954374 C67.82192739 68.4892118 58.79136358 68.49195717 49.76078033 68.50272179 C42.07121752 68.51182913 34.38169134 68.51400015 26.69212547 68.50721236 C22.77003404 68.50394821 18.84801286 68.50388666 14.92592812 68.51256561 C11.33209239 68.52043627 7.73838256 68.51899343 4.14454988 68.51028148 C2.23571109 68.50802381 0.32686837 68.51557076 -1.58195519 68.52352113 C-13.3302352 68.47641494 -23.62729855 66.84744249 -32.27351379 58.21772766 C-39.20328904 49.85165285 -42.01899089 41.66962994 -41.67585754 30.79585266 C-40.58957905 22.24731318 -36.87152159 13.90884679 -30.22663879 8.26069641 C-20.21030737 1.11328111 -12.07455164 -0.03653556 0 0 Z " fill="#000000" transform="translate(169.2266387939453,355.7393035888672)"/>
<path d="M0 0 C1.34858938 -0.0030238 2.69717705 -0.00691442 4.0457617 -0.01159257 C7.73672519 -0.02185191 11.42759131 -0.01969603 15.1185627 -0.01541197 C19.10502793 -0.01294099 23.09146995 -0.02196353 27.07792664 -0.02944946 C34.88210543 -0.04218814 42.68624981 -0.04399119 50.49043725 -0.0416492 C56.83503523 -0.03986496 63.17962278 -0.04161796 69.52421951 -0.04587364 C70.42779149 -0.04646883 71.33136347 -0.04706402 72.26231641 -0.04767724 C74.09802583 -0.04888902 75.93373525 -0.05010315 77.76944466 -0.05131962 C94.97847323 -0.06219196 112.1874822 -0.06003412 129.39651187 -0.05393478 C145.13203099 -0.04876587 160.8674882 -0.06002092 176.60299508 -0.07903299 C192.7692599 -0.09841544 208.93549544 -0.10666668 225.10177195 -0.10290974 C234.17427713 -0.10099832 243.24672962 -0.10347954 252.31922531 -0.11762428 C260.04273955 -0.12954422 267.76616866 -0.13093609 275.48968409 -0.11883412 C279.42815212 -0.11294974 283.36646449 -0.11183371 287.3049221 -0.12383652 C290.91478402 -0.13470981 294.52436058 -0.13157501 298.13420923 -0.11757483 C300.04912715 -0.11368592 301.96405782 -0.12446321 303.87894571 -0.13587171 C316.05752249 -0.05982158 324.49225527 2.4618153 333.37857056 10.85444641 C340.32897809 18.22187839 342.31779671 26.41187995 342.15713501 36.36250305 C341.68966723 46.51340364 338.00601911 52.86120924 331.05825806 60.12788391 C327.85818133 63.01112135 324.75681836 64.88044254 320.69107056 66.26069641 C319.76441998 66.60014377 318.83776941 66.93959112 317.88303852 67.28932476 C312.20998889 68.88377716 306.34701447 68.53913292 300.50239563 68.52139282 C299.1546693 68.52441566 297.80694469 68.52830581 296.45922309 68.53298539 C292.76600033 68.54325722 289.07287474 68.54108565 285.37964404 68.5368048 C281.39247953 68.53433606 277.40533833 68.54335361 273.41818237 68.55084229 C265.61052437 68.56358761 257.80290075 68.56538315 249.99523409 68.56304202 C243.64775178 68.56125837 237.30027991 68.56300952 230.95279884 68.56726646 C230.04909138 68.56786165 229.14538391 68.56845684 228.21429137 68.56907007 C226.37834042 68.57028183 224.54238947 68.57149597 222.70643852 68.57271244 C205.49073787 68.58358753 188.27505681 68.58142575 171.05935506 68.5753276 C155.31730584 68.57015954 139.57531852 68.58141101 123.83328154 68.60042582 C107.66252833 68.61980844 91.4918044 68.6280594 75.3210395 68.62430257 C66.24516597 68.62239103 57.16934511 68.62487338 48.09348106 68.63901711 C40.36628281 68.65093734 32.63916965 68.65232865 24.91197022 68.64022694 C20.9714839 68.63434251 17.03115317 68.63322664 13.09067726 68.64522934 C9.47892507 68.65610262 5.86745809 68.65296783 2.25571916 68.63896766 C0.33975952 68.63507869 -1.57621287 68.64585611 -3.4921425 68.65726453 C-14.53422997 68.58834813 -23.74673968 66.50815454 -32.30892944 59.26069641 C-39.06620591 52.26262612 -42.47692908 44.06694852 -42.87142944 34.38569641 C-42.58179938 25.2074196 -39.50598917 16.52139032 -33.10189819 9.78804016 C-22.91654063 1.11162446 -12.92147518 -0.03931235 0 0 Z " fill="#000000" transform="translate(170.30892944335938,221.7393035888672)"/>
<path d="M0 0 C9.34991664 8.50386849 14.6749858 19.91865961 15.41015625 32.48828125 C15.27034409 43.71985837 11.99504518 53.28516567 5.375 62.3125 C4.653125 63.3025 3.93125 64.2925 3.1875 65.3125 C-3.45211387 73.04522103 -14.50287529 78.48620411 -24.625 79.3125 C-38.06206652 80.19217702 -49.71723334 76.91379097 -60.3125 68.5625 C-67.13877127 62.38409244 -73.97951986 51.67097358 -74.80200195 42.29467773 C-75.33595653 22.26606297 -75.33595653 22.26606297 -70.625 14.3125 C-70.22796875 13.6009375 -69.8309375 12.889375 -69.421875 12.15625 C-62.73549208 0.81479036 -54.04963115 -5.59594043 -41.625 -9.6875 C-26.88431299 -13.45107966 -11.75402702 -9.22599903 0 0 Z " fill="#000000" transform="translate(74.625,221.6875)"/>
<path d="M0 0 C9.55132154 8.92386246 14.41717117 21.3286096 15.125 34.1875 C14.68789599 42.12822279 13.00371849 49.23919965 9.125 56.1875 C8.71507813 56.93644531 8.30515625 57.68539062 7.8828125 58.45703125 C1.67493952 68.75087713 -7.62855452 74.48110425 -18.875 78.1875 C-30.9410098 81.15174808 -43.58756509 79.16065489 -54.25 72.8125 C-55.47447957 71.96024169 -56.68372154 71.08558133 -57.875 70.1875 C-58.46667969 69.76984375 -59.05835938 69.3521875 -59.66796875 68.921875 C-67.55253647 62.86485609 -72.56803655 53.75744736 -74.875 44.1875 C-75.28394938 40.86153404 -75.35269883 37.59840215 -75.3125 34.25 C-75.30565186 33.37118164 -75.29880371 32.49236328 -75.29174805 31.58691406 C-75.13091888 25.09833063 -74.22678008 19.83888324 -70.875 14.1875 C-70.46636719 13.46433594 -70.05773437 12.74117187 -69.63671875 11.99609375 C-68.45107204 10.00288581 -67.19359634 8.09452532 -65.875 6.1875 C-65.318125 5.341875 -64.76125 4.49625 -64.1875 3.625 C-46.88142337 -14.61654023 -19.40176492 -15.37579163 0 0 Z " fill="#000000" transform="translate(74.875,87.8125)"/>
<path d="M0 0 C0.58136719 0.43828125 1.16273437 0.8765625 1.76171875 1.328125 C2.35339844 1.74578125 2.94507812 2.1634375 3.5546875 2.59375 C12.82740311 9.71716067 17.94523442 20.71184105 19.57421875 32.078125 C20.49691914 44.4384657 16.97626455 55.40812453 9.76171875 65.328125 C9.18421875 66.153125 8.60671875 66.978125 8.01171875 67.828125 C0.62113637 76.0398832 -10.12362095 81.69899329 -21.23828125 82.328125 C-21.92148437 82.36679687 -22.6046875 82.40546875 -23.30859375 82.4453125 C-35.94988834 82.8417294 -48.36137207 78.75828468 -57.71875 70.015625 C-68.55848637 57.97766584 -70.99411204 45.35442619 -70.40869141 29.71533203 C-69.66549913 19.30425169 -63.39772057 10.42030906 -56.140625 3.2578125 C-40.30653515 -10.01868389 -17.19660442 -11.96912509 0 0 Z " fill="#000000" transform="translate(70.23828125,352.671875)"/>
</svg>
